<svg xmlns="http://www.w3.org/2000/svg" version="1.1" viewBox="-5.0 -10.0 110.0 110.0">
 <path fill="#000" d="m50 5c-24.809 0-45 20.191-45 45s20.191 45 45 45 45-20.191 45-45-20.191-45-45-45zm0 83.57c-21.27 0-38.57-17.301-38.57-38.57s17.301-38.57 38.57-38.57 38.57 17.301 38.57 38.57-17.301 38.57-38.57 38.57zm3.4805-39.102c6.9102-1.5898 12.09-7.7617 12.09-15.141 0-8.5781-6.9805-15.559-15.57-15.559s-15.559 6.9805-15.559 15.559c0 7.3789 5.1797 13.551 12.09 15.141-11.121 1.6914-19.672 11.281-19.672 22.859 0 1.7812 1.4414 3.2109 3.2109 3.2109 1.7695 0 3.2109-1.4414 3.2109-3.2109 0-9.2188 7.5-16.719 16.719-16.719s16.719 7.5 16.719 16.719c0 1.7812 1.4414 3.2109 3.2109 3.2109 1.7695 0 3.2109-1.4414 3.2109-3.2109 0-11.578-8.5586-21.172-19.672-22.859zm-12.609-15.141c0-5.0391 4.1016-9.1406 9.1289-9.1406 5.0312 0 9.1406 4.1016 9.1406 9.1406s-4.1016 9.1406-9.1406 9.1406-9.1289-4.1016-9.1289-9.1406z"/>
</svg>