<svg xmlns="http://www.w3.org/2000/svg" data-name="Layer 1" viewBox="0 0 100 100" x="0px" y="0px"><path fill="#000" d="M34.11,80.85A84.79,84.79,0,0,0,48,82a84.76,84.76,0,0,0,13.89-1.15A4,4,0,0,0,60.58,73a76.85,76.85,0,0,1-25.15,0A12.64,12.64,0,0,1,25,62.58a76.52,76.52,0,0,1,0-25.15A12.63,12.63,0,0,1,35.42,27a76.85,76.85,0,0,1,25.15,0A12.64,12.64,0,0,1,71,37.42,76.76,76.76,0,0,1,72,50v2.5a4.5,4.5,0,0,1-9,0V50a15.05,15.05,0,1,0-4.73,10.9A12.48,12.48,0,0,0,80,52.5V48h0a84.8,84.8,0,0,0-1.11-11.89,20.64,20.64,0,0,0-17-17,84.91,84.91,0,0,0-27.78,0,20.63,20.63,0,0,0-17,17,84.49,84.49,0,0,0,0,27.78A20.64,20.64,0,0,0,34.11,80.85ZM48,57a7,7,0,1,1,7-7A7,7,0,0,1,48,57Z"/></svg>