<svg xmlns="http://www.w3.org/2000/svg" version="1.1" viewBox="0 0 100 100">
  <g>
    <g id="Layer_1">
      <path fill="#000" d="M86.7,24h-5.2V7H18.6v17h-5.2c-4.7,0-8.4,3.7-8.4,8.3v31.4c0,4.6,3.7,8.3,8.3,8.3h2.1v21h51.6l17.5-17.5v-3.4h2.1c4.6,0,8.3-3.7,8.3-8.3v-31.5c0-4.6-3.6-8.3-8.2-8.3ZM23.8,12.2h52.4v11.8H23.8v-11.8ZM58,61.6v25.3h-2.8v-25.3h2.8ZM52.3,86.9h-7.1v-25.3h7.1v25.3ZM43.3,86.9h-2.8v-25.3h2.8v25.3ZM36.7,86.9h-2.8v-25.3h2.8v25.3ZM25.7,86.9h-4.1v-25.3h4.1v25.3ZM64.4,86.9h-5.9l4.1-.4v-24.9h9.9v17.1l-8.1,8.2ZM72.7,78.6l5.7-5.7h0l-5.7,5.7ZM88.8,63.8c0,1.2-1,2.1-2.1,2.1h-2.1v-10.5H15.6v10.5h-2.1c-1.2,0-2.1-1-2.1-2.1v-31.5c0-1.2,1-2.1,2.1-2.1h73.3c1.2,0,2.1,1,2.1,2.1v31.5h-.1ZM71,40.2c0,1.4-1.2,2.6-2.6,2.6s-2.6-1.2-2.6-2.6,1.2-2.6,2.6-2.6c1.4,0,2.6,1.1,2.6,2.6ZM81.4,40.2c0,1.4-1.2,2.6-2.6,2.6s-2.6-1.2-2.6-2.6,1.2-2.6,2.6-2.6c1.5,0,2.6,1.1,2.6,2.6Z"/>
    </g>
  </g>
</svg>