<svg xmlns="http://www.w3.org/2000/svg" version="1.1" viewBox="-5.0 -10.0 110.0 110.0">
 <g fill="#000">
  <path d="m69.648 96.875h-39.297c-8.1211 0-14.727-6.6055-14.727-14.727v-32.742c0-8.1211 6.6055-14.727 14.727-14.727h39.297c8.1211 0 14.727 6.6055 14.727 14.727v32.742c0 8.1211-6.6016 14.727-14.727 14.727zm-39.297-55.945c-4.6758 0-8.4766 3.8047-8.4766 8.4766v32.742c0 4.6758 3.8047 8.4766 8.4766 8.4766h39.297c4.6719 0 8.4766-3.8047 8.4766-8.4766v-32.742c0-4.6758-3.8047-8.4766-8.4766-8.4766z"/>
  <path d="m73.32 40.93h-46.633v-14.488c0-12.855 10.461-23.32 23.316-23.32 12.855 0 23.32 10.461 23.32 23.32v14.488zm-40.387-6.25h34.133v-8.2383c0-9.4141-7.6562-17.07-17.07-17.07-9.4141 0-17.066 7.6562-17.066 17.07v8.2383z"/>
  <path d="m50 72.492c-6.0312 0-10.938-4.9062-10.938-10.938s4.9062-10.938 10.938-10.938 10.938 4.9062 10.938 10.938-4.9062 10.938-10.938 10.938zm0-15.625c-2.5859 0-4.6875 2.1016-4.6875 4.6875 0 2.5859 2.1016 4.6875 4.6875 4.6875s4.6875-2.1016 4.6875-4.6875c0-2.5859-2.1016-4.6875-4.6875-4.6875z"/>
  <path d="m50 82.637c-1.7266 0-3.125-1.3984-3.125-3.125v-10.145h6.25v10.145c0 1.7266-1.3984 3.125-3.125 3.125z"/>
 </g>
</svg>