<svg xmlns="http://www.w3.org/2000/svg" data-name="Layer 1" viewBox="0 0 95 95" x="0px" y="0px"><defs><style>.cls-1{fill-rule:evenodd;}</style></defs><title>a</title><path fill="#000" class="cls-1" d="M35.056,47.8,8.127,70.88V24.723L35.056,47.8ZM47.5,51.059l34.882-29.9H12.609L47.5,51.059ZM45.665,56.9l-6.292-5.393L13.315,73.839h68.37L55.619,51.506,49.326,56.9a2.813,2.813,0,0,1-3.661,0ZM86.873,70.88,59.944,47.8,86.873,24.723V70.88ZM7.944,79.464h79.1A5.46,5.46,0,0,0,92.5,74.015V20.985a5.46,5.46,0,0,0-5.454-5.449H7.944A5.458,5.458,0,0,0,2.5,20.985v53.03A5.458,5.458,0,0,0,7.944,79.464Z"/></svg>