<svg xmlns="http://www.w3.org/2000/svg" xmlns:xlink="http://www.w3.org/1999/xlink" version="1.1" x="0px" y="0px" viewBox="0 0 100 100" style="enable-background:new 0 0 100 100;" xml:space="preserve"><path fill="#000" d="M79.3,20.7c-16.2-16.2-42.5-16.2-58.7,0c-16.2,16.2-16.2,42.5,0,58.7c16.2,16.2,42.5,16.2,58.7,0  C95.5,63.2,95.5,36.8,79.3,20.7z M68.8,52.4c-0.6,0.6-1.5,1-2.4,1h-13v13c0,0.9-0.4,1.8-1,2.4s-1.5,1-2.4,1c-1.9,0-3.4-1.5-3.4-3.4  v-13h-13c-1.9,0-3.4-1.5-3.4-3.4c0-1.9,1.5-3.4,3.4-3.4l13,0v-13c0-1.9,1.5-3.4,3.4-3.4h0c1.9,0,3.4,1.5,3.4,3.4v13h13  c1.9,0,3.4,1.5,3.4,3.4C69.7,50.9,69.4,51.8,68.8,52.4z"/></svg>